# xmcd CD database file
#
# Track frame offsets:
#	150
#	15424
#	27992
#	43897
#	60913
#	77895
#	90511
#	107485
#	125007
#	142452
#	161701
#	185384
#	198236
#	222530
#	236765
#	250905
#	276441
#	296912
#	312651
#	327206
#
# Disc length: 4527 seconds
#
# Revision: 0
# Processed by: cddbd v1.5.2PL0 Copyright (c) Steve Scherf et al.
# Submitted via: CDex 1.70beta2
#
DISCID=3411ad14
DTITLE=Various Artist - 100 Hits Of The 70's Cd2
DYEAR=2005
DGENRE=70's
TTITLE0=Barry Whtie - You Are The First,My Last, My Everything
TTITLE1=The New Seekers - Beg Steel Or Borrow
TTITLE2=Vixkey Leandros - Apres Toi
TTITLE3=Status Quo - Caroline
TTITLE4=The Les Humphries Singers - Mexico
TTITLE5=Bobby Vinton - Sealed With A Kiss
TTITLE6=Meco - Star Wars
TTITLE7=Linsey De Paul - Sugar Me
TTITLE8=Third World - Now That We'v Found Love
TTITLE9=Carly Simon - You're So Vain
TTITLE10=Rod Stewart - Maggie May
TTITLE11=White Plains - When You Are A King
TTITLE12=Mortimer Shuman - Le Lac Majeur
TTITLE13=Moments And Whatnauts - Girls
TTITLE14=Fleetwood Mac - Albatros
TTITLE15=Status Quo - Roll Over Lay Down
TTITLE16=Santana - Samba Pa-Ti
TTITLE17=Paperlace - The Night Chigago Died
TTITLE18=The Three Degrees - Cokaine In My Brain
TTITLE19=Dillinger - Cokane In My Brain
EXTD=YEAR: 2005
EXTT0=
EXTT1=
EXTT2=
EXTT3=
EXTT4=
EXTT5=
EXTT6=
EXTT7=
EXTT8=
EXTT9=
EXTT10=
EXTT11=
EXTT12=
EXTT13=
EXTT14=
EXTT15=
EXTT16=
EXTT17=
EXTT18=
EXTT19=
PLAYORDER=
